<?xml version="1.0"?>
<svg xmlns="http://www.w3.org/2000/svg" xmlns:xlink="http://www.w3.org/1999/xlink" xmlns:svgjs="http://svgjs.com/svgjs" version="1.1" width="512" height="512" x="0" y="0" viewBox="0 0 512 512" style="enable-background:new 0 0 512 512" xml:space="preserve"><g><g xmlns="http://www.w3.org/2000/svg"><path d="m442.393 191.219h-27.119v-126.306c-.001-35.793-29.12-64.913-64.913-64.913h-.211c-35.793 0-64.913 29.12-64.913 64.913v126.306h-31.483l-20.839-57.876v-57.954c0-18.385-14.958-33.342-33.342-33.342h-55.224c-18.385 0-33.342 14.958-33.342 33.342v57.954l-20.839 57.876h-20.56c-8.284 0-15 6.716-15 15v290.781c0 8.284 6.716 15 15 15h372.785c8.284 0 15-6.716 15-15v-290.781c0-8.284-6.716-15-15-15zm-127.157-32.363h21.991c8.284 0 15-6.716 15-15s-6.716-15-15-15h-21.991v-30.442h21.991c8.284 0 15-6.716 15-15s-6.716-15-15-15h-21.991v-3.501c0-19.251 15.662-34.913 34.913-34.913h.211c19.251 0 34.913 15.662 34.913 34.913v126.306h-70.037zm-170.888-86.809h55.224c1.843 0 3.342 1.5 3.342 3.342v45.571h-61.908v-45.571c0-1.843 1.499-3.342 3.342-3.342zm-7.8 78.913h70.825l14.495 40.258h-99.815zm290.845 70.259v171.13h-342.786v-171.13zm-342.786 260.781v-59.651h342.785v59.651z" fill="#ffffff" data-original="#000000" style=""/><path d="m259.39 353.326c32.848 0 59.572-23.945 59.572-53.377v-38.461c0-8.284-6.716-15-15-15s-15 6.716-15 15v38.461c0 12.89-13.266 23.377-29.573 23.377-16.306 0-29.572-10.487-29.572-23.377v-38.461c0-8.284-6.716-15-15-15s-15 6.716-15 15v38.461c0 29.432 26.725 53.377 59.573 53.377z" fill="#ffffff" data-original="#000000" style=""/></g></g></svg>
