<?xml version="1.0" encoding="iso-8859-1"?>
<!-- Generator: Adobe Illustrator 19.0.0, SVG Export Plug-In . SVG Version: 6.00 Build 0)  -->
<svg version="1.1" id="Layer_1" xmlns="http://www.w3.org/2000/svg" xmlns:xlink="http://www.w3.org/1999/xlink" x="0px" y="0px"
	 viewBox="0 0 491.301 491.301" style="enable-background:new 0 0 491.301 491.301;" xml:space="preserve">
<circle style="fill:#F4EFD9;" cx="245.651" cy="96" r="64.8"/>
<path style="fill:#E5D9AA;" d="M245.651,32c35.2,0,64.8,28.8,64.8,64.8s-28.8,64.8-64.8,64.8"/>
<path style="fill:#9B450A;" d="M66.451,481.6c-1.6,6.4-8,10.4-14.4,9.6l0,0c-6.4-1.6-10.4-8-9.6-14.4l8-100c1.6-6.4,21.6-8,28-6.4
	l0,0c6.4,1.6,24.8,11.2,23.2,17.6L66.451,481.6z"/>
<path style="fill:#7C3800;" d="M78.451,369.6L78.451,369.6c6.4,1.6,24.8,11.2,23.2,17.6l-35.2,94.4c-1.6,6.4-8,10.4-14.4,9.6l0,0"/>
<path style="fill:#9B450A;" d="M424.851,481.6c1.6,6.4,8,10.4,14.4,9.6l0,0c6.4-1.6,10.4-8,9.6-14.4l-8-100c-1.6-6.4-21.6-8-28-6.4
	l0,0c-6.4,1.6-24.8,11.2-23.2,17.6L424.851,481.6z"/>
<path style="fill:#7C3800;" d="M412.051,369.6L412.051,369.6c-6.4,1.6-24.8,11.2-23.2,17.6l35.2,93.6c1.6,6.4,8,10.4,14.4,9.6l0,0"
	/>
<path style="fill:#FFC114;" d="M485.651,368.8c0,42.4-38.4,52.8-80.8,52.8h-318.4c-42.4,0-80.8-9.6-80.8-52.8V156
	c0-42.4,38.4-78.4,80.8-78.4h326.4c42.4,0,72.8,36,72.8,78.4V368.8z"/>
<path style="fill:#FCA12A;" d="M85.651,77.6h327.2c42.4,0,72.8,36,72.8,78.4v212.8c0,42.4-38.4,52.8-80.8,52.8"/>
<path style="fill:#6965A8;" d="M317.651,325.6c0,44.8-36,56-81.6,56h-101.6c-45.6,0-80.8-11.2-80.8-56V200
	c0-44.8,35.2-82.4,80.8-82.4h102.4c44.8,0,80.8,37.6,80.8,82.4V325.6z"/>
<path style="fill:#4C4C8C;" d="M53.651,200c0-44.8,35.2-82.4,80.8-82.4h102.4c44.8,0,80.8,37.6,80.8,82.4v125.6
	c0,44.8-36,56-81.6,56"/>
<g>
	<path style="fill:#FFC114;" d="M448.051,133.6c0,4.8-4,8-8,8h-79.2c-4.8,0-8-3.2-8-8l0,0c0-4.8,4-8,8-8h79.2
		C444.851,125.6,448.051,128.8,448.051,133.6L448.051,133.6z"/>
	<path style="fill:#FFC114;" d="M448.051,173.6c0,4.8-4,8-8,8h-79.2c-4.8,0-8-3.2-8-8l0,0c0-4.8,4-8,8-8h79.2
		C444.851,165.6,448.051,168.8,448.051,173.6L448.051,173.6z"/>
	<path style="fill:#FFC114;" d="M448.051,213.6c0,4.8-4,8-8,8h-79.2c-4.8,0-8-3.2-8-8l0,0c0-4.8,4-8,8-8h79.2
		C444.851,205.6,448.051,208.8,448.051,213.6L448.051,213.6z"/>
</g>
<path style="fill:#32BA7C;" d="M432.851,331.2c-18.4,18.4-48,18.4-66.4,0s-18.4-48,0-66.4s48-18.4,66.4,0
	S451.251,312.8,432.851,331.2z"/>
<path style="fill:#0AA06E;" d="M432.851,264.8c18.4,18.4,18.4,48,0,66.4s-48,18.4-66.4,0"/>
<path style="fill:#C4B78C;" d="M186.451,10.4c-1.6-3.2-0.8-7.2,2.4-9.6l0,0c3.2-1.6,7.2-0.8,9.6,2.4l36,42.4
	c1.6,3.2-5.6,11.2-8.8,13.6l0,0c-3.2,2.4-13.6,5.6-16,2.4L186.451,10.4z"/>
<path style="fill:#E5D9AA;" d="M225.651,59.2L225.651,59.2c-3.2,2.4-13.6,5.6-16,2.4l-23.2-50.4c-1.6-3.2-0.8-7.2,2.4-9.6l0,0"/>
<path style="fill:#C4B78C;" d="M304.851,10.4c1.6-3.2,0.8-7.2-2.4-9.6l0,0c-3.2-1.6-7.2-0.8-9.6,2.4l-36,42.4
	c-1.6,3.2,5.6,11.2,8.8,13.6l0,0c3.2,2.4,13.6,5.6,16,2.4L304.851,10.4z"/>
<path style="fill:#E5D9AA;" d="M265.651,59.2L265.651,59.2c3.2,2.4,13.6,5.6,16,2.4l23.2-50.4c1.6-3.2,0.8-7.2-2.4-9.6l0,0"/>
<g>
</g>
<g>
</g>
<g>
</g>
<g>
</g>
<g>
</g>
<g>
</g>
<g>
</g>
<g>
</g>
<g>
</g>
<g>
</g>
<g>
</g>
<g>
</g>
<g>
</g>
<g>
</g>
<g>
</g>
</svg>
