<?xml version="1.0" encoding="iso-8859-1"?>
<!-- Generator: Adobe Illustrator 19.0.0, SVG Export Plug-In . SVG Version: 6.00 Build 0)  -->
<svg version="1.1" id="Layer_1" xmlns="http://www.w3.org/2000/svg" xmlns:xlink="http://www.w3.org/1999/xlink" x="0px" y="0px"
	 viewBox="0 0 496 496" style="enable-background:new 0 0 496 496;" xml:space="preserve">
<g>
	<rect x="79.6" y="448" style="fill:#2F423F;" width="40" height="48"/>
	<rect x="375.6" y="448" style="fill:#2F423F;" width="40" height="48"/>
</g>
<path style="fill:#F4EFD9;" d="M463.6,421.6c0,32-26.4,58.4-58.4,58.4H90c-32,0-58.4-26.4-58.4-58.4V58.4C31.6,26.4,58,0,90,0h316
	c32,0,58.4,26.4,58.4,58.4v363.2H463.6z"/>
<g>
	<path style="fill:#E5D9AA;" d="M247.6,0h159.2c32,0,56.8,24.8,56.8,57.6v360c0,35.2-26.4,62.4-58.4,62.4H247.6"/>
	
		<rect x="96.419" y="68.58" transform="matrix(-0.7071 -0.7071 0.7071 -0.7071 164.4924 269.2948)" style="fill:#E5D9AA;" width="83.199" height="63.999"/>
</g>
<circle style="fill:#FFC114;" cx="247.6" cy="276" r="176.8"/>
<path style="fill:#FCA12A;" d="M247.6,99.2c97.6,0,176.8,79.2,176.8,176.8s-79.2,176.8-176.8,176.8"/>
<circle style="fill:#3AC2F2;" cx="247.6" cy="276" r="141.6"/>
<path style="fill:#009CC6;" d="M347.6,176c55.2,55.2,55.2,144.8,0,200s-144.8,55.2-200,0"/>
<circle style="fill:#10BBE8;" cx="247.6" cy="276" r="80"/>
<path style="fill:#009CC6;" d="M190.8,219.2c31.2-31.2,81.6-31.2,112.8,0s31.2,81.6,0,112.8"/>
<circle style="fill:#37CC85;" cx="105.2" cy="67.2" r="33.6"/>
<path style="fill:#0AA06E;" d="M128.4,44c12.8,12.8,12.8,34.4,0,47.2S94,104,81.2,91.2"/>
<path style="fill:#DDCE92;" d="M367.6,72.8c0,4-3.2,7.2-7.2,7.2H174.8c-4,0-7.2-3.2-7.2-7.2v-1.6c0-4,3.2-7.2,7.2-7.2h185.6
	c4,0,7.2,3.2,7.2,7.2V72.8z"/>
<g>
	<path style="fill:#F4EFD9;" d="M423.6,49.6c0,3.2-3.2,6.4-6.4,6.4H382c-3.2,0-6.4-3.2-6.4-6.4v-3.2c0-3.2,3.2-6.4,6.4-6.4h35.2
		c3.2,0,6.4,3.2,6.4,6.4V49.6z"/>
	<path style="fill:#F4EFD9;" d="M423.6,81.6c0,3.2-3.2,6.4-6.4,6.4H382c-3.2,0-6.4-3.2-6.4-6.4v-3.2c0-3.2,3.2-6.4,6.4-6.4h35.2
		c3.2,0,6.4,3.2,6.4,6.4V81.6z"/>
	<path style="fill:#F4EFD9;" d="M423.6,113.6c0,3.2-3.2,6.4-6.4,6.4H382c-3.2,0-6.4-3.2-6.4-6.4v-3.2c0-3.2,3.2-6.4,6.4-6.4h35.2
		c3.2,0,6.4,3.2,6.4,6.4V113.6z"/>
</g>
<g>
</g>
<g>
</g>
<g>
</g>
<g>
</g>
<g>
</g>
<g>
</g>
<g>
</g>
<g>
</g>
<g>
</g>
<g>
</g>
<g>
</g>
<g>
</g>
<g>
</g>
<g>
</g>
<g>
</g>
</svg>
